Patient4_TMGait_0pt5_01_left_08_GRF.mot
version=1
nRows=77
nColumns=19
inDegrees=no
endheader
time	F1x	F1y	F1z	M1x	M1y	M1z	F2x	F2y	F2z	M2x	M2y	M2z	EC1x	EC1y	EC1z	EC2x	EC2y	EC2z
10.77	4.6588	-5.0229	4.1125	0.33383	-0.90632	-7.3801	-42.3956	705.8661	-68.271	268.2659	66.4498	565.0374	-0.0592	0.0182	-0.0073	-0.0462	0.0165	0.9585
10.7832	3.0325	-2.7146	2.7406	0.00040584	-0.658	-4.3921	-41.2602	714.5458	-65.3171	269.7625	63.361	569.9293	-0.0592	0.0182	-0.0073	-0.0462	0.0165	0.9585
10.7964	1.6881	-0.76706	1.6154	-0.29505	-0.45656	-1.9075	-40.4183	724.7461	-62.6475	272.1168	60.6513	575.3589	-0.0592	0.0182	-0.0073	-0.0462	0.0165	0.9585
10.8096	0.69644	0.72509	0.77917	-0.53334	-0.30459	-0.036135	-39.85	735.9515	-60.3468	275.2567	58.4091	580.9655	-0.0592	0.0182	-0.0073	-0.0462	0.0165	0.9585
10.8229	0.028846	1.7756	0.22035	-0.71225	-0.206	1.2687	-39.3703	747.4309	-58.3467	278.939	56.5255	586.2432	-0.0592	0.0182	-0.0073	-0.0462	0.0165	0.9585
10.8361	-0.36278	2.4354	-0.1088	-0.834	-0.15068	2.082	-38.7107	758.3028	-56.5321	282.8062	54.8109	590.5739	-0.0592	0.0182	-0.0073	-0.0462	0.0165	0.9585
10.8493	-0.57409	2.7796	-0.26139	-0.90266	-0.13999	2.5189	-37.6091	767.6508	-54.7791	286.4566	53.0596	593.3165	-0.0592	0.0182	-0.0073	-0.0462	0.0165	0.9585
10.8625	-0.67411	2.8596	-0.29545	-0.91535	-0.1612	2.6501	-35.8742	774.6761	-52.9972	289.5234	51.1206	593.9227	-0.0592	0.0182	-0.0073	-0.0462	0.0165	0.9585
10.8757	-0.73202	2.6991	-0.25583	-0.86316	-0.21033	2.5301	-33.4513	778.8893	-51.1233	291.7564	48.9131	592.0895	-0.0592	0.0182	-0.0073	-0.0462	0.0165	0.9585
10.8889	-0.79283	2.2832	-0.18258	-0.72987	-0.27886	2.1698	-30.3816	780.2301	-49.1212	293.0741	46.4118	587.8309	-0.0592	0.0182	-0.0073	-0.0462	0.0165	0.9585
10.9021	-0.87516	1.5656	-0.095439	-0.49273	-0.36333	1.5401	-26.7741	779.0936	-46.9924	293.5705	43.6412	581.5048	-0.0592	0.0182	-0.0073	-0.0462	0.0165	0.9585
10.9154	-0.99378	0.49447	-0.013926	-0.12831	-0.45102	0.61365	-22.7507	776.1252	-44.7978	293.4384	40.6689	573.6358	-0.0592	0.0182	-0.0073	-0.0462	0.0165	0.9585
10.9286	-1.118	-0.97766	0.053519	0.38249	-0.52587	-0.66071	-18.4349	771.971	-42.6873	292.8756	37.6303	564.7447	-0.0592	0.0182	-0.0073	-0.0462	0.0165	0.9585
10.9418	-1.2085	-2.8379	0.094619	1.0356	-0.56446	-2.2633	-13.9196	767.1804	-40.8364	292.0485	34.6661	555.2751	-0.0592	0.0182	-0.0073	-0.0462	0.0165	0.9585
10.955	-1.173	-4.9745	0.091003	1.7895	-0.52556	-4.0997	-9.2438	762.1365	-39.4126	291.0696	31.8967	545.5263	-0.0592	0.0182	-0.0073	-0.0462	0.0165	0.9585
10.9682	-0.89897	-7.0919	0.014408	2.5397	-0.34926	-5.9166	-4.4406	757.0712	-38.4981	290.0066	29.3786	535.6981	-0.0592	0.0182	-0.0073	-0.0462	0.0165	0.9585
10.9814	-0.23693	-8.6325	-0.16861	3.0867	0.041425	-7.2491	0.48057	752.0833	-38.1097	288.8897	27.1283	525.8975	-0.0592	0.0182	-0.0073	-0.0462	0.0165	0.9585
10.9946	0.98033	-8.7052	-0.48957	3.1128	0.72847	-7.3495	5.4841	747.1832	-38.1766	287.7258	25.1081	516.2004	-0.0592	0.0182	-0.0073	-0.0462	0.0165	0.9585
11.0079	2.9062	-6.0248	-0.98448	2.1596	1.7988	-5.1332	10.5262	742.2713	-38.6067	286.4875	23.2778	506.608	-0.0592	0.0182	-0.0073	-0.0462	0.0165	0.9585
11.0211	5.6528	1.0693	-1.6709	-0.36757	3.3054	0.79286	15.5113	737.1431	-39.2611	285.1082	21.5817	497.077	-0.0592	0.0182	-0.0073	-0.0462	0.0165	0.9585
11.0343	9.1969	14.5288	-2.5425	-5.1608	5.2324	12.0607	20.2914	731.4577	-39.991	283.4638	19.9855	487.5021	-0.0592	0.0182	-0.0073	-0.0462	0.0165	0.9585
11.0475	13.3001	36.2992	-3.5344	-12.9052	7.4393	30.2898	24.6694	724.671	-40.6145	281.3497	18.4548	477.6672	-0.0592	0.0182	-0.0073	-0.0462	0.0165	0.9585
11.0607	17.3629	67.8158	-4.4966	-24.1007	9.5895	56.6953	28.3888	716.0007	-40.9605	278.4645	16.9913	467.2389	-0.0592	0.0182	-0.0073	-0.0462	0.0165	0.9585
11.0739	20.2805	109.1825	-5.1605	-38.7719	11.0737	91.383	31.2142	704.3983	-40.8501	274.4034	15.5862	455.6817	-0.0592	0.0182	-0.0073	-0.0462	0.0165	0.9585
11.0871	20.4586	158.184	-5.0939	-56.1161	10.9822	132.514	32.9497	688.7097	-40.1303	268.7169	14.2388	442.3721	-0.0592	0.0182	-0.0073	-0.0462	0.0165	0.9585
11.1004	16.7629	209.8308	-3.7453	-74.3377	8.4745	175.9085	33.5658	667.9347	-38.6726	261.0206	12.9049	426.692	-0.0592	0.0182	-0.0073	-0.0462	0.0165	0.9585
11.1136	10.1326	257.9836	-0.48627	-91.2435	3.3479	216.3113	33.2267	641.6159	-36.4479	251.144	11.5276	408.2744	-0.0592	0.0182	-0.0073	-0.0462	0.0165	0.9585
11.1268	2.3754	299.3712	4.3062	-105.6998	-3.3929	250.6735	32.282	610.0522	-33.5736	239.2038	10.0526	387.149	-0.0592	0.0182	-0.0073	-0.0462	0.0165	0.9585
11.14	-5.0881	334.4553	10.0067	-117.9053	-10.6914	279.1176	31.1271	574.0275	-30.3779	225.4939	8.521	363.6111	-0.0592	0.0182	-0.0073	-0.0462	0.0165	0.9585
11.1532	-11.36	365.4577	15.8829	-128.6982	-17.5949	303.4013	30.0199	534.4067	-27.2353	210.3292	7.0351	338.0461	-0.0592	0.0182	-0.0073	-0.0462	0.0165	0.9585
11.1664	-16.0365	394.619	21.3902	-138.9092	-23.5157	325.3825	29.0569	491.9027	-24.3847	193.9706	5.6802	310.7854	-0.0592	0.0182	-0.0073	-0.0462	0.0165	0.9585
11.1796	-19.0674	423.2364	26.1028	-149.0214	-28.0958	346.1743	28.1417	447.0959	-21.8782	176.6325	4.5005	282.1617	-0.0592	0.0182	-0.0073	-0.0462	0.0165	0.9585
11.1929	-20.5158	451.7012	29.9329	-159.1738	-31.3199	366.1368	27.0871	400.4972	-19.6509	158.5103	3.5145	252.4915	-0.0592	0.0182	-0.0073	-0.0462	0.0165	0.9585
11.2061	-20.5767	480.1101	32.9909	-169.3778	-33.3688	385.4166	25.6478	352.742	-17.6056	139.8474	2.747	222.2008	-0.0592	0.0182	-0.0073	-0.0462	0.0165	0.9585
11.2193	-19.5146	508.6515	35.6268	-179.6639	-34.6504	404.254	23.6195	304.6865	-15.6884	120.9807	2.2428	191.8286	-0.0592	0.0182	-0.0073	-0.0462	0.0165	0.9585
11.2325	-17.6577	537.6855	38.1663	-190.1271	-35.555	423.0133	20.8807	257.4961	-13.8899	102.3725	2.0416	162.1052	-0.0592	0.0182	-0.0073	-0.0462	0.0165	0.9585
11.2457	-15.4469	567.5946	40.9547	-200.8674	-36.529	442.1035	17.4886	212.5282	-12.2467	84.5681	2.1534	133.8606	-0.0592	0.0182	-0.0073	-0.0462	0.0165	0.9585
11.2589	-13.2498	598.5835	44.0962	-211.9421	-37.7825	461.7328	13.6843	171.1136	-10.7674	68.1124	2.5015	107.89	-0.0592	0.0182	-0.0073	-0.0462	0.0165	0.9585
11.2721	-11.3104	630.603	47.5672	-223.3254	-39.3884	481.939	9.8055	134.3013	-9.4374	53.4414	2.9615	84.8249	-0.0592	0.0182	-0.0073	-0.0462	0.0165	0.9585
11.2854	-9.6574	663.125	51.1285	-234.84	-41.1619	502.3394	6.1952	102.6529	-8.2101	40.803	3.3893	64.9769	-0.0592	0.0182	-0.0073	-0.0462	0.0165	0.9585
11.2986	-8.2545	695.0703	54.5612	-246.1123	-42.925	522.1662	3.0453	76.2491	-7.0278	30.2493	3.6862	48.3986	-0.0592	0.0182	-0.0073	-0.0462	0.0165	0.9585
11.3118	-7.0314	724.9417	57.6139	-256.6227	-44.4456	540.3186	0.47377	54.7781	-5.8461	21.6731	3.7882	34.8932	-0.0592	0.0182	-0.0073	-0.0462	0.0165	0.9585
11.325	-5.8685	751.1318	60.2059	-265.8026	-45.6209	555.6456	-1.4589	37.7209	-4.6651	14.8736	3.6769	24.1637	-0.0592	0.0182	-0.0073	-0.0462	0.0165	0.9585
11.3382	-4.6499	772.1917	62.2669	-273.1401	-46.3431	567.147	-2.713	24.4958	-3.5102	9.619	3.3513	15.8606	-0.0592	0.0182	-0.0073	-0.0462	0.0165	0.9585
11.3514	-3.2455	787.0438	63.8451	-278.2517	-46.6131	574.1015	-3.2664	14.5645	-2.4361	5.6908	2.8325	9.6317	-0.0592	0.0182	-0.0073	-0.0462	0.0165	0.9585
11.3646	-1.5805	795.1643	64.9177	-280.9527	-46.3894	576.2211	-3.1984	7.5025	-1.5071	2.9104	2.1831	5.2126	-0.0592	0.0182	-0.0073	-0.0462	0.0165	0.9585
11.3779	0.40522	796.575	65.5301	-281.2545	-45.7104	573.6032	-2.7348	2.9113	-0.77736	1.1129	1.5218	2.3301	-0.0592	0.0182	-0.0073	-0.0462	0.0165	0.9585
11.3911	2.7032	791.8877	65.6659	-279.3803	-44.575	566.7591	-2.1375	0.29738	-0.26154	0.097806	0.9553	0.69296	-0.0592	0.0182	-0.0073	-0.0462	0.0165	0.9585
11.4043	5.2374	782.273	65.4065	-275.7479	-43.0888	556.5819	-1.5441	-0.89793	0.068766	-0.35515	0.52061	-0.05614	-0.0592	0.0182	-0.0073	-0.0462	0.0165	0.9585
11.4175	7.8913	769.3363	64.8131	-270.9295	-41.3421	544.251	-1.0409	-1.1603	0.24922	-0.4399	0.22866	-0.22746	-0.0592	0.0182	-0.0073	-0.0462	0.0165	0.9585
11.4307	10.524	754.8883	64.0412	-265.5658	-39.5095	531.0771	-0.6625	-0.88318	0.32264	-0.31211	0.058947	-0.074382	-0.0592	0.0182	-0.0073	-0.0462	0.0165	0.9585
11.4439	13.0235	740.7035	63.1955	-260.2871	-37.7011	518.2916	-0.39679	-0.35394	0.32369	-0.0849	-0.019439	0.22583	-0.0592	0.0182	-0.0073	-0.0462	0.0165	0.9585
11.4571	15.2896	728.3266	62.4267	-255.6411	-36.0561	506.9397	-0.24214	0.26281	0.28382	0.17353	-0.035044	0.59559	-0.0592	0.0182	-0.0073	-0.0462	0.0165	0.9585
11.4704	17.3068	718.9491	61.8012	-252.0534	-34.618	497.7659	-0.16003	0.84962	0.2235	0.41947	-0.014133	0.94888	-0.0592	0.0182	-0.0073	-0.0462	0.0165	0.9585
11.4836	19.0669	713.3364	61.3809	-249.7908	-33.43	491.2327	-0.14856	1.3672	0.15626	0.63571	0.031601	1.2817	-0.0592	0.0182	-0.0073	-0.0462	0.0165	0.9585
11.4968	20.5994	711.7601	61.1505	-248.9476	-32.4639	487.4559	-0.17587	1.7874	0.092649	0.81227	0.085231	1.5689	-0.0592	0.0182	-0.0073	-0.0462	0.0165	0.9585
11.51	21.9184	714.0417	61.0926	-249.4574	-31.7008	486.272	-0.23714	2.1085	0.040454	0.94602	0.13881	1.8103	-0.0592	0.0182	-0.0073	-0.0462	0.0165	0.9585
11.5232	23.0684	719.6332	61.1512	-251.1221	-31.0824	487.2807	-0.32251	2.321	0.0058807	1.0313	0.18512	1.9875	-0.0592	0.0182	-0.0073	-0.0462	0.0165	0.9585
11.5364	24.1155	727.742	61.2869	-253.6584	-30.5576	489.9287	-0.42144	2.3987	-0.014659	1.0579	0.22641	2.0686	-0.0592	0.0182	-0.0073	-0.0462	0.0165	0.9585
11.5496	25.1313	737.4918	61.4504	-256.7524	-30.0625	493.6205	-0.54313	2.3127	-0.02095	1.0129	0.2676	2.0336	-0.0592	0.0182	-0.0073	-0.0462	0.0165	0.9585
11.5629	26.1971	748.0029	61.6148	-260.0896	-29.5536	497.7568	-0.6634	1.9949	-0.016405	0.87081	0.30707	1.8021	-0.0592	0.0182	-0.0073	-0.0462	0.0165	0.9585
11.5761	27.3537	758.4251	61.762	-263.3646	-29.0026	501.7873	-0.78847	1.3694	0.0010395	0.59848	0.34226	1.3084	-0.0592	0.0182	-0.0073	-0.0462	0.0165	0.9585
11.5893	28.6521	767.9344	61.89	-266.2833	-28.3989	505.1687	-0.88394	0.34206	0.029794	0.15734	0.36311	0.45191	-0.0592	0.0182	-0.0073	-0.0462	0.0165	0.9585
11.6025	30.1214	775.7843	62.0031	-268.5822	-27.7415	507.4277	-0.92098	-1.1618	0.071414	-0.48357	0.35298	-0.83491	-0.0592	0.0182	-0.0073	-0.0462	0.0165	0.9585
11.6157	31.8176	781.3627	62.1078	-270.0494	-27.026	508.1742	-0.84886	-3.1677	0.12187	-1.3315	0.28942	-2.5735	-0.0592	0.0182	-0.0073	-0.0462	0.0165	0.9585
11.6289	33.7728	784.2317	62.2098	-270.5355	-26.2487	507.1452	-0.59111	-5.5844	0.17865	-2.3456	0.14267	-4.6873	-0.0592	0.0182	-0.0073	-0.0462	0.0165	0.9585
11.6421	35.9912	784.1267	62.3131	-269.9517	-25.4107	504.2042	-0.069525	-8.1179	0.23893	-3.4024	-0.11869	-6.9164	-0.0592	0.0182	-0.0073	-0.0462	0.0165	0.9585
11.6554	38.4277	780.9284	62.4232	-268.2582	-24.5306	499.3217	0.82162	-10.2141	0.30689	-4.2678	-0.53982	-8.7885	-0.0592	0.0182	-0.0073	-0.0462	0.0165	0.9585
11.6686	40.9989	774.7004	62.5465	-265.4734	-23.6383	492.6013	2.1574	-10.9261	0.39066	-4.5522	-1.1559	-9.4666	-0.0592	0.0182	-0.0073	-0.0462	0.0165	0.9585
11.6818	43.6291	765.6712	62.667	-261.6744	-22.7448	484.2243	3.9931	-8.8818	0.50141	-3.6895	-1.9922	-7.7637	-0.0592	0.0182	-0.0073	-0.0462	0.0165	0.9585
11.695	46.2221	754.207	62.7492	-256.9889	-21.8573	474.4672	6.2659	-2.2401	0.63862	-0.92198	-3.0211	-2.077	-0.0592	0.0182	-0.0073	-0.0462	0.0165	0.9585
11.7082	48.7049	740.6907	62.7181	-251.5601	-20.9508	463.5922	8.7604	11.1993	0.78799	4.6591	-4.1369	9.5152	-0.0592	0.0182	-0.0073	-0.0462	0.0165	0.9585
11.7214	50.9747	725.3723	62.4684	-245.4951	-19.9884	451.79	11.0063	33.7423	0.90657	14.0075	-5.1036	29.0445	-0.0592	0.0182	-0.0073	-0.0462	0.0165	0.9585
11.7346	52.9115	708.1949	61.8398	-238.8067	-18.9057	439.0625	12.1185	67.3771	0.92929	27.9434	-5.5	58.2811	-0.0592	0.0182	-0.0073	-0.0462	0.0165	0.9585
11.7479	54.3588	688.6532	60.6485	-231.3717	-17.6476	425.1412	10.8365	113.0227	0.75637	46.8448	-4.7249	98.068	-0.0592	0.0182	-0.0073	-0.0462	0.0165	0.9585
11.7611	55.1358	665.7976	58.6794	-222.9254	-16.1522	409.5098	5.9458	169.6216	0.27273	70.2669	-2.1931	147.5369	-0.0592	0.0182	-0.0073	-0.0462	0.0165	0.9585
11.7743	55.0764	638.3663	55.749	-213.0982	-14.3771	391.4328	-2.7201	233.3745	-0.67384	96.6257	2.2762	203.3771	-0.0592	0.0182	-0.0073	-0.0462	0.0165	0.9585
